# AST/ASF file generated using VICON BodyLanguage
# -----------------------------------------------
:version 1.10
:name VICON
:units
  mass 1.0
  length 0.45
  angle deg
:documentation
   .ast/.asf automatically generated from VICON data using
   VICON BodyBuilder and BodyLanguage model FoxedUp or BRILLIANT.MOD
:root
   order TX TY TZ RX RY RZ
   axis XYZ
   position 0 0 0  
   orientation 0 0 0 
:bonedata
  begin
     id 1 
     name lhipjoint
     direction 0.650112 -0.723553 0.232005 
     length 2.45805 
     axis 0 0 0  XYZ
  end
  begin
     id 2 
     name lfemur
     direction 0.34202 -0.939693 0  
     length 7.00073  
     axis 0 0 20  XYZ
    dof rx ry rz
    limits (-160.0 20.0)
           (-70.0 70.0)
           (-60.0 70.0)
  end
  begin
     id 3 
     name ltibia
     direction 0.34202 -0.939693 0   
     length 7.8748   
     axis 0 0 20   XYZ
    dof rx
    limits (-10.0 170.0)
  end
  begin
     id 4 
     name lfoot
     direction 0.0542825 -0.14914 0.987325   
     length 1.75978   
     axis -90 7.62852e-016 20   XYZ
    dof rx rz
    limits (-45.0 90.0)
           (-70.0 20.0)
  end
  begin
     id 5 
     name ltoes
     direction 1.53509e-011 -4.21906e-011 1   
     length 0.893912   
     axis -90 7.62852e-016 20   XYZ
    dof rx
    limits (-90.0 20.0)
  end
  begin
     id 6 
     name rhipjoint
     direction -0.637897 -0.733345 0.235145   
     length 2.42522  
     axis 0 0 0  XYZ 
  end
  begin
     id 7 
     name rfemur
     direction -0.34202 -0.939693 0   
     length 7.02549   
     axis 0 0 -20   XYZ
    dof rx ry rz
    limits (-160.0 20.0)
           (-70.0 70.0)
           (-70.0 60.0)
  end
  begin
     id 8 
     name rtibia
     direction -0.34202 -0.939693 0   
     length 7.71512   
     axis 0 0 -20   XYZ
    dof rx
    limits (-10.0 170.0)
 end
 begin
     id 9 
     name rfoot
     direction -0.0822618 -0.226012 0.970645   
     length 1.90014  
     axis -90 -7.62852e-016 -20   XYZ
    dof rx rz
    limits (-45.0 90.0)
           (-20.0 70.0)
  end
  begin
     id 10 
     name rtoes
     direction -1.53542e-011 -4.21872e-011 1   
     length 0.957341   
     axis -90 -7.62852e-016 -20   XYZ
    dof rx
    limits (-90.0 20.0)
  end
  begin
     id 11 
     name lowerback
     direction -0.0022947 0.999774 -0.0211557   
     length 1.89909   
     axis 0 0 0   XYZ
    dof rx ry rz
    limits (-20.0 45.0)
           (-30.0 30.0)
           (-30.0 30.0)
  end
  begin
     id 12 
     name upperback
     direction 0.0107737 0.998635 0.0511027   
     length 1.8853   
     axis 0 0 0   XYZ
    dof rx ry rz
    limits (-20.0 45.0)
           (-30.0 30.0)
           (-30.0 30.0)
  end
  begin
     id 13 
     name thorax
     direction 0.011824 0.998136 0.0598754   
     length 1.88911   
     axis 0 0 0   XYZ
    dof rx ry rz
    limits (-20.0 45.0)
           (-30.0 30.0)
           (-30.0 30.0)
  end
  begin
     id 14 
     name lowerneck
     direction -0.0685355 0.990319 0.120714   
     length 1.91222   
     axis 0 0 0   XYZ
    dof rx ry rz
    limits (-20.0 45.0)
           (-30.0 30.0)
           (-30.0 30.0)
  end
  begin
     id 15 
     name upperneck
     direction 0.0886204 0.955665 -0.280805   
     length 1.92526   
     axis 0 0 0   XYZ
    dof rx ry rz
    limits (-20.0 45.0)
           (-30.0 30.0)
           (-30.0 30.0)
  end
  begin
     id 16
     name head
     direction 0.0233423 0.993502 -0.111393  
     length 1.96056  
     axis 0 0 0   XYZ
    dof rx ry rz
    limits (-20.0 45.0)
           (-30.0 30.0)
           (-30.0 30.0)
  end
  begin
     id 17 
     name lclavicle
     direction 0.941873 0.32922 0.0670041  
     length 3.31705  
     axis 0 0 0   XYZ
    dof ry rz
    limits (-20.0 10.0)
           (0.0 20.0)
  end
  begin
     id 18 
     name lhumerus
     direction 1 -4.4898e-011 3.38707e-028   
     length 5.29277   
     axis 180 -30 -90   XYZ
    dof rx ry rz
    limits (-60.0 90.0)
           (-90.0 90.0)
           (-90.0 90.0)
  end
  begin
     id 19
     name lradius
     direction 1 -4.48952e-011 1.63213e-028   
     length 2.85226   
     axis 180 -30 -90   XYZ
    dof rx
    limits (-10.0 170.0)
  end
  begin
     id 20
     name lwrist
     direction 1 -4.49001e-011 1.27856e-027   
     length 1.42613   
     axis -1.61767e-015 90 90   XYZ
    dof ry
    limits (-180.0 0.0)
 end
  begin
     id 21 
     name lhand
     direction 1 -4.48976e-011 2.55931e-027   
     length 0.602097   
     axis -1.63363e-015 90 90   XYZ
    dof rx rz
    limits (-90.0 90.0)
           (-45.0 45.0)
  end
  begin
     id 22 
     name lfingers
     direction 1 -4.48986e-011 5.11684e-027   
     length 0.485426   
     axis -3.26723e-015 90 90   XYZ
    dof rx
    limits (0.0 90.0)
  end
  begin
     id 23
     name lthumb
     direction 0.707107 -6.34915e-011 0.707107   
     length 0.696978   
     axis -90 45 -2.25915e-014   XYZ
    dof rx rz
    limits (-45.0 45.0)
           (-45.0 45.0)
  end
  begin
     id 24 
     name rclavicle
     direction -0.939974 0.327078 0.0973096   
     length 3.10337  
     axis 0 0 0   XYZ 
    dof ry rz
    limits (-10.0 20.0)
           (-20.0 0.0)
  end
  begin
     id 25 
     name rhumerus
     direction -1 -4.48975e-011 1.83745e-027  
     length 5.13304   
     axis 180 30 90   XYZ
    dof rx ry rz
    limits (-90.0 60.0)
           (-90.0 90.0)
           (-90.0 90.0)
  end
  begin
     id 26 
     name rradius
     direction -1 -4.48977e-011 7.1775e-029   
     length 2.74305   
     axis 180 30 90   XYZ
    dof rx
    limits (-10.0 170.0)
  end
  begin
     id 27 
     name rwrist
     direction -1 -4.48977e-011 1.27963e-027   
     length 1.37152   
     axis -1.61767e-015 -90 -90   XYZ
    dof ry
    limits (-180.0 0.0)
  end
  begin
     id 28
     name rhand
     direction -1 -4.4888e-011 2.56782e-027   
     length 0.767976   
     axis -1.63363e-015 -90 -90   XYZ
    dof rx rz
    limits (-90.0 90.0)
           (-45.0 45.0)
  end
  begin
     id 29
     name rfingers
     direction -1 -4.48947e-011 5.12384e-027   
     length 0.619162   
     axis -3.26723e-015 -90 -90   XYZ
    dof rx
    limits (0.0 90.0)
  end
  begin
     id 30
     name rthumb
     direction -0.707107 -6.34857e-011 0.707107   
     length 0.888997   
     axis -90 -45 2.25915e-014   XYZ
    dof rx rz
    limits (-45.0 45.0)
           (-45.0 45.0)
  end
:hierarchy
  begin
    root lhipjoint rhipjoint lowerback
    lhipjoint lfemur
    lfemur ltibia
    ltibia lfoot
    lfoot ltoes
    rhipjoint rfemur
    rfemur rtibia
    rtibia rfoot
    rfoot rtoes
    lowerback upperback
    upperback thorax
    thorax lowerneck lclavicle rclavicle
    lowerneck upperneck
    upperneck head
    lclavicle lhumerus
    lhumerus lradius
    lradius lwrist
    lwrist lhand lthumb
    lhand lfingers
    rclavicle rhumerus
    rhumerus rradius
    rradius rwrist
    rwrist rhand rthumb
    rhand rfingers
  end

#!OML:ASF F:\VICON\USERDATA\INSTALL\rory3\rory3.ASF
:FULLY-SPECIFIED
:DEGREES
373
root -0.125496 16.5985 0.441998 0.860406 -0.913554 -1.97501
lowerback -3.87913 -0.338895 -0.537747
upperback -1.99752 -0.434638 0.212776
thorax 0.131709 -0.212799 0.502394
lowerneck -17.0764 -9.71199 -14.1752
upperneck 41.0237 -13.9184 7.95084
head 21.1039 -6.6908 3.25642
rclavicle -1.71949e-014 2.98177e-015
rhumerus -71.4395 73.2444 -100.027
rradius 60.4192
rwrist 11.2326
rhand -10.9255 21.4822
rfingers 7.12502
rthumb 15.0923 -7.94764
lclavicle -1.71949e-014 2.98177e-015
lhumerus -54.8029 -63.2766 93.5784
lradius 38.8464
lwrist -7.63761
lhand -9.79082 15.8232
lfingers 7.12502
lthumb 16.1851 45.1675
rfemur -10.05 5.40292 22.0238
rtibia 37.9222
rfoot -25.9423 -8.03001
rtoes -11.2269
lfemur -12.5636 -4.18705 -15.627
ltibia 40.8768
lfoot -26.8261 -0.0315265
ltoes -15.4662
374
root -0.125433 16.5822 0.42953 0.610057 -0.830273 -1.9037
lowerback -3.75773 -0.38913 -0.621118
upperback -1.8375 -0.499279 0.231706
thorax 0.229639 -0.245234 0.566137
lowerneck -17.1967 -9.71009 -14.1624
upperneck 40.9483 -13.8744 7.92097
head 21.0706 -6.66961 3.24254
rclavicle -7.20594e-015 7.55382e-015
rhumerus -70.6835 73.5431 -99.7346
rradius 59.9625
rwrist 11.6165
rhand -11.0767 21.5734
rfingers 7.12502
rthumb 14.9466 -7.86732
lclavicle -7.20594e-015 7.55382e-015
lhumerus -53.1311 -62.5526 93.1119
lradius 38.0244
lwrist -8.33505
lhand -9.7562 15.6032
lfingers 7.12502
lthumb 16.2184 44.9447
rfemur -9.99757 5.24808 21.9523
rtibia 38.2989
rfoot -26.1366 -7.97002
rtoes -11.0502
lfemur -12.5082 -4.14199 -15.7058
ltibia 41.2284
lfoot -26.9422 -0.123495
ltoes -15.6431
375
root -0.125849 16.5657 0.415156 0.343307 -0.723861 -1.86431
lowerback -3.55322 -0.464669 -0.677298
upperback -1.7219 -0.599302 0.256223
thorax 0.236156 -0.295191 0.61996
lowerneck -17.2404 -9.68096 -14.152
upperneck 40.8858 -13.8106 7.91358
head 21.0235 -6.64245 3.24966
rclavicle 7.70291e-016 3.97569e-016
rhumerus -69.7138 73.7648 -99.3738
rradius 59.3552
rwrist 11.9956
rhand -11.0846 21.7817
rfingers 7.12502
rthumb 14.939 -7.65958
lclavicle 7.70291e-016 3.97569e-016
lhumerus -51.4166 -61.4758 92.5635
lradius 37.0714
lwrist -9.17243
lhand -10.0746 15.5007
lfingers 7.12502
lthumb 15.9118 44.867
rfemur -9.94422 5.08651 21.9261
rtibia 38.7001
rfoot -26.2896 -7.99345
rtoes -10.8631
lfemur -12.4654 -4.14323 -15.7437
ltibia 41.5786
lfoot -27.0898 -0.240109
ltoes -15.9033
376
root -0.12832 16.5474 0.397532 0.0815203 -0.629648 -1.75461
lowerback -3.35109 -0.555404 -0.840609
upperback -1.55978 -0.716494 0.286164
thorax 0.293514 -0.353677 0.738841
lowerneck -17.2989 -9.65031 -14.1208
upperneck 40.7119 -13.7158 7.87166
head 20.888 -6.60224 3.23865
rclavicle 3.67752e-015 -6.16232e-015
rhumerus -68.3183 74.0576 -98.6878
rradius 58.675
rwrist 12.3408
rhand -11.1379 21.9731
rfingers 7.12502
rthumb 14.8877 -7.47197
lclavicle 3.67752e-015 -6.16232e-015
lhumerus -48.912 -59.8344 91.3005
lradius 35.9735
lwrist -10.4794
lhand -10.0805 15.3442
lfingers 7.12502
lthumb 15.9061 44.711
rfemur -9.93706 4.93989 21.8328
rtibia 39.1248
rfoot -26.415 -8.12638
rtoes -11.2769
lfemur -12.4461 -4.09831 -15.846
ltibia 41.922
lfoot -27.1518 -0.369116
ltoes -15.9937
377
root -0.131028 16.5279 0.378079 -0.189417 -0.520148 -1.78668
lowerback -3.14763 -0.609299 -0.804105
upperback -1.356 -0.790681 0.305067
thorax 0.389767 -0.392031 0.735956
lowerneck -17.4077 -9.65906 -14.0738
upperneck 40.5321 -13.7111 7.88795
head 20.7893 -6.58412 3.22981
rclavicle 5.59082e-015 -1.78906e-015
rhumerus -66.4242 74.1471 -97.6369
rradius 57.8629
rwrist 12.874
rhand -11.0796 22.2124
rfingers 7.12502
rthumb 14.9438 -7.22845
lclavicle 5.59082e-015 -1.78906e-015
lhumerus -46.043 -58.026 89.7285
lradius 34.8115
lwrist -11.8415
lhand -9.88111 15.2643
lfingers 7.12502
lthumb 16.0981 44.6157
rfemur -9.92093 4.80824 21.9019
rtibia 39.5581
rfoot -26.6074 -8.20457
rtoes -11.6674
lfemur -12.4443 -4.02007 -15.7807
ltibia 42.2874
lfoot -27.2055 -0.54345
ltoes -15.9685
378
root -0.131609 16.5078 0.36213 -0.464644 -0.470338 -1.71288
lowerback -2.96747 -0.634748 -0.828736
upperback -1.18224 -0.824538 0.242235
thorax 0.467066 -0.409985 0.685114
lowerneck -17.446 -9.64929 -13.9955
upperneck 40.4013 -13.7411 7.97336
head 20.7178 -6.56972 3.24731
rclavicle 1.5704e-014 -7.35503e-015
rhumerus -64.5434 74.0596 -96.7213
rradius 56.9857
rwrist 13.5038
rhand -11.1539 22.2642
rfingers 7.12502
rthumb 14.8722 -7.18197
lclavicle 1.5704e-014 -7.35503e-015
lhumerus -43.4124 -56.1287 88.3399
lradius 33.589
lwrist -13.1861
lhand -9.80955 15.2019
lfingers 7.12502
lthumb 16.167 44.5477
rfemur -9.89619 4.68087 21.8243
rtibia 40.0143
rfoot -26.8486 -8.0591
rtoes -11.4279
lfemur -12.4124 -3.93619 -15.8567
ltibia 42.6764
lfoot -27.3966 -0.519105
ltoes -16.522
379
root -0.130916 16.487 0.34737 -0.776137 -0.488212 -1.6707
lowerback -2.81843 -0.65198 -0.828265
upperback -0.955873 -0.84786 0.201089
thorax 0.615315 -0.423141 0.64207
lowerneck -17.5039 -9.64013 -13.9195
upperneck 40.2557 -13.7586 8.04396
head 20.6379 -6.55192 3.25928
rclavicle 1.42131e-014 -1.23246e-014
rhumerus -62.3406 73.9925 -95.5744
rradius 56.0153
rwrist 13.9629
rhand -11.3575 22.2078
rfingers 7.12502
rthumb 14.6761 -7.2528
lclavicle 1.42131e-014 -1.23246e-014
lhumerus -40.5842 -53.7354 86.7611
lradius 32.236
lwrist -14.9353
lhand -9.9609 15.0267
lfingers 7.12502
lthumb 16.0213 44.3843
rfemur -9.83667 4.58469 21.781
rtibia 40.4802
rfoot -27.0456 -7.99066
rtoes -11.4392
lfemur -12.3406 -3.84716 -15.9104
ltibia 43.1041
lfoot -27.6151 -0.535554
ltoes -16.838
380
root -0.132871 16.4663 0.328893 -1.06731 -0.478463 -1.66566
lowerback -2.6667 -0.688508 -0.841515
upperback -0.701744 -0.896683 0.191842
thorax 0.791545 -0.449202 0.638352
lowerneck -17.649 -9.65032 -13.8407
upperneck 40.116 -13.7893 8.09897
head 20.5879 -6.53724 3.25587
rclavicle 1.30577e-014 -8.34896e-015
rhumerus -59.6317 73.8513 -94.004
rradius 54.9872
rwrist 14.2731
rhand -11.2925 22.2711
rfingers 7.12502
rthumb 14.7387 -7.18496
lclavicle 1.30577e-014 -8.34896e-015
lhumerus -37.6184 -50.7884 85.0546
lradius 30.8022
lwrist -17.1164
lhand -10.2523 14.8359
lfingers 7.12502
lthumb 15.7407 44.2158
rfemur -9.83886 4.53701 21.7989
rtibia 40.9761
rfoot -27.2457 -7.98158
rtoes -11.2402
lfemur -12.318 -3.75053 -15.899
ltibia 43.5558
lfoot -27.7407 -0.882132
ltoes -16.1435
381
root -0.135352 16.4423 0.308254 -1.39312 -0.476339 -1.62672
lowerback -2.43216 -0.70905 -0.885506
upperback -0.45878 -0.923866 0.149866
thorax 0.909508 -0.464242 0.620264
lowerneck -17.7637 -9.66262 -13.7561
upperneck 39.9555 -13.8625 8.22661
head 20.5339 -6.52999 3.27833
rclavicle -1.18898e-014 1.33186e-014
rhumerus -56.642 73.4306 -92.2249
rradius 53.9032
rwrist 14.8734
rhand -11.021 22.3772
rfingers 7.12502
rthumb 15.0002 -7.05953
lclavicle -1.18898e-014 1.33186e-014
lhumerus -34.7908 -47.479 83.449
lradius 29.3003
lwrist -19.5508
lhand -10.6094 14.6135
lfingers 7.12502
lthumb 15.3967 44.0202
rfemur -9.82689 4.47983 21.7808
rtibia 41.5011
rfoot -27.479 -7.91825
rtoes -10.8488
lfemur -12.2699 -3.60346 -15.9226
ltibia 44.0172
lfoot -27.8879 -1.05202
ltoes -16.1657
382
root -0.138288 16.4167 0.287527 -1.7098 -0.478383 -1.58934
lowerback -2.20634 -0.730584 -0.93497
upperback -0.201718 -0.951873 0.0825815
thorax 1.04641 -0.479864 0.579143
lowerneck -17.9534 -9.68309 -13.595
upperneck 39.8209 -13.9724 8.35158
head 20.5162 -6.52288 3.27497
rclavicle 2.61526e-014 -8.54774e-015
rhumerus -53.4999 72.9079 -90.4258
rradius 52.7423
rwrist 15.5616
rhand -10.8676 22.3636
rfingers 7.12502
rthumb 15.148 -7.06197
lclavicle 2.61526e-014 -8.54774e-015
lhumerus -32.0886 -43.8398 81.9305
lradius 27.7797
lwrist -22.0049
lhand -11.0298 14.644
lfingers 7.12502
lthumb 14.9918 44.0814
rfemur -9.83256 4.405 21.7653
rtibia 42.041
rfoot -27.6533 -7.96378
rtoes -11.0096
lfemur -12.2405 -3.43291 -15.9352
ltibia 44.4652
lfoot -27.9943 -0.976633
ltoes -16.9697
383
root -0.139601 16.3913 0.266411 -2.00011 -0.434093 -1.4786
lowerback -2.0546 -0.792874 -1.03748
upperback 0.0785104 -1.03139 -0.0293967
thorax 1.24952 -0.521828 0.51914
lowerneck -18.1043 -9.69386 -13.4573
upperneck 39.6207 -14.0916 8.55649
head 20.4605 -6.51469 3.31282
rclavicle 8.69683e-016 -6.75868e-015
rhumerus -50.3722 72.3983 -88.7813
rradius 51.514
rwrist 16.1579
rhand -10.7521 22.2759
rfingers 7.12502
rthumb 15.2593 -7.1413
lclavicle 8.69683e-016 -6.75868e-015
lhumerus -29.5125 -39.6522 80.4212
lradius 26.2766
lwrist -24.6558
lhand -11.9418 14.7325
lfingers 7.12502
lthumb 14.113 44.2332
rfemur -9.85429 4.26915 21.6455
rtibia 42.5715
rfoot -27.8554 -7.91874
rtoes -10.8848
lfemur -12.2345 -3.33031 -16.0446
ltibia 44.9089
lfoot -28.0758 -1.17905
ltoes -16.9214
384
root -0.139878 16.3678 0.249778 -2.32853 -0.329443 -1.39723
lowerback -1.93448 -0.906726 -1.15294
upperback 0.390624 -1.17909 -0.0927399
thorax 1.50551 -0.598706 0.513013
lowerneck -18.2326 -9.6804 -13.3976
upperneck 39.4088 -14.1631 8.808
head 20.3995 -6.4957 3.40003
rclavicle -5.82688e-015 1.31198e-014
rhumerus -47.1362 71.8356 -87.0766
rradius 50.2099
rwrist 16.8642
rhand -10.5815 22.2184
rfingers 7.12502
rthumb 15.4236 -7.18616
lclavicle -5.82688e-015 1.31198e-014
lhumerus -27.0502 -34.4139 78.978
lradius 24.6743
lwrist -27.8658
lhand -12.973 14.4177
lfingers 7.12502
lthumb 13.1192 43.985
rfemur -9.78617 4.08352 21.5517
rtibia 43.0781
rfoot -28.1794 -7.76683
rtoes -10.3278
lfemur -12.1704 -3.31727 -16.1385
ltibia 45.3506
lfoot -28.2203 -1.28661
ltoes -16.9735
